solid Untitled-5bcef144
facet normal 1.0 -2.479091413228921e-16 -1.723658965028284e-47
  outer loop
    vertex 58.703013167219446 45.49999999999999 1.5333567748854193e-13
    vertex 58.70301316721944 0.0 10.694600000000152
    vertex 58.70301316721944 0.0 1.5333567748854193e-13
  endloop
endfacet
facet normal 1.0 -2.479091413228921e-16 -1.723658965028284e-47
  outer loop
    vertex 58.70301316721944 0.0 10.694600000000152
    vertex 58.703013167219446 45.49999999999999 1.5333567748854193e-13
    vertex 58.703013167219446 45.49999999999999 10.694600000000152
  endloop
endfacet
facet normal 0.0 1.0 0.0
  outer loop
    vertex 6.203013167219453 75.5 1.5333567748854193e-13
    vertex 6.95301316721944 75.5 4.000000000000154
    vertex 58.703013167219446 75.5 1.5333567748854193e-13
  endloop
endfacet
facet normal 0.0 1.0 0.0
  outer loop
    vertex 6.95301316721944 75.5 4.000000000000154
    vertex 6.203013167219453 75.5 1.5333567748854193e-13
    vertex 6.203013167219453 75.5 10.694600000000152
  endloop
endfacet
facet normal 0.0 1.0 0.0
  outer loop
    vertex 6.95301316721944 75.5 4.000000000000154
    vertex 6.203013167219453 75.5 10.694600000000152
    vertex 6.95301316721944 75.5 10.694600000000152
  endloop
endfacet
facet normal 0.0 1.0 0.0
  outer loop
    vertex 58.703013167219446 75.5 1.5333567748854193e-13
    vertex 57.95301316721944 75.5 4.000000000000154
    vertex 58.703013167219446 75.5 10.694600000000152
  endloop
endfacet
facet normal 0.0 1.0 0.0
  outer loop
    vertex 57.95301316721944 75.5 4.000000000000154
    vertex 58.703013167219446 75.5 1.5333567748854193e-13
    vertex 6.95301316721944 75.5 4.000000000000154
  endloop
endfacet
facet normal 0.0 1.0 0.0
  outer loop
    vertex 58.703013167219446 75.5 10.694600000000152
    vertex 57.95301316721944 75.5 4.000000000000154
    vertex 57.95301316721944 75.5 10.694600000000152
  endloop
endfacet
facet normal -1.0 0.0 0.0
  outer loop
    vertex 6.203013167219453 45.499999999999986 10.694600000000154
    vertex 6.203013167219453 0.0 1.5333567748854193e-13
    vertex 6.203013167219453 0.0 10.694600000000152
  endloop
endfacet
facet normal -1.0 0.0 0.0
  outer loop
    vertex 6.203013167219453 0.0 1.5333567748854193e-13
    vertex 6.203013167219453 45.499999999999986 10.694600000000154
    vertex 6.203013167219453 45.499999999999986 1.5227819005758646e-13
  endloop
endfacet
facet normal 1.2085570639490992e-17 -3.1474599350722904e-18 -1.0
  outer loop
    vertex 58.703013167219446 75.5 1.5333567748854193e-13
    vertex 6.203013167219453 70.5 1.5227819005758646e-13
    vertex 6.203013167219453 75.5 1.5333567748854193e-13
  endloop
endfacet
facet normal 1.2085570639490992e-17 -3.1474599350722904e-18 -1.0
  outer loop
    vertex 6.203013167219453 70.5 1.5227819005758646e-13
    vertex 58.703013167219446 75.5 1.5333567748854193e-13
    vertex 6.203013167219453 50.5 1.5227819005758646e-13
  endloop
endfacet
facet normal 1.2085570639490992e-17 -3.1474599350722904e-18 -1.0
  outer loop
    vertex 6.203013167219453 50.5 1.5227819005758646e-13
    vertex 58.703013167219446 75.5 1.5333567748854193e-13
    vertex 6.203013167219453 45.499999999999986 1.5227819005758646e-13
  endloop
endfacet
facet normal 1.2085570639490992e-17 -3.1474599350722904e-18 -1.0
  outer loop
    vertex 6.203013167219453 45.499999999999986 1.5227819005758646e-13
    vertex 58.703013167219446 75.5 1.5333567748854193e-13
    vertex 6.203013167219453 0.0 1.5333567748854193e-13
  endloop
endfacet
facet normal 1.2085570639490992e-17 -3.1474599350722904e-18 -1.0
  outer loop
    vertex 6.203013167219453 0.0 1.5333567748854193e-13
    vertex 58.703013167219446 75.5 1.5333567748854193e-13
    vertex 58.70301316721944 0.0 1.5333567748854193e-13
  endloop
endfacet
facet normal 1.2085570639490992e-17 -3.1474599350722904e-18 -1.0
  outer loop
    vertex 58.70301316721944 0.0 1.5333567748854193e-13
    vertex 58.703013167219446 75.5 1.5333567748854193e-13
    vertex 58.703013167219446 45.49999999999999 1.5333567748854193e-13
  endloop
endfacet
facet normal 1.2085570639490992e-17 -3.1474599350722904e-18 -1.0
  outer loop
    vertex 58.703013167219446 45.49999999999999 1.5333567748854193e-13
    vertex 58.703013167219446 75.5 1.5333567748854193e-13
    vertex 58.703013167219446 70.5 1.5333567748854193e-13
  endloop
endfacet
facet normal 1.2085570639490992e-17 -3.1474599350722904e-18 -1.0
  outer loop
    vertex 58.703013167219446 45.49999999999999 1.5333567748854193e-13
    vertex 58.703013167219446 70.5 1.5333567748854193e-13
    vertex 58.703013167219446 50.5 1.5333567748854193e-13
  endloop
endfacet
facet normal 0.0 0.0 1.0
  outer loop
    vertex 56.45301316721944 5.500000000000001 1.5000000000001545
    vertex 8.453013167219437 68.0 1.5000000000001545
    vertex 8.453013167219437 5.500000000000001 1.5000000000001545
  endloop
endfacet
facet normal 0.0 0.0 1.0
  outer loop
    vertex 8.453013167219437 68.0 1.5000000000001545
    vertex 56.45301316721944 5.500000000000001 1.5000000000001545
    vertex 56.45301316721944 68.0 1.5000000000001545
  endloop
endfacet
facet normal -1.0 0.0 0.0
  outer loop
    vertex 56.45301316721944 68.0 4.000000000000154
    vertex 56.45301316721944 5.500000000000001 1.5000000000001545
    vertex 56.45301316721944 5.500000000000001 4.000000000000154
  endloop
endfacet
facet normal -1.0 0.0 0.0
  outer loop
    vertex 56.45301316721944 5.500000000000001 1.5000000000001545
    vertex 56.45301316721944 68.0 4.000000000000154
    vertex 56.45301316721944 68.0 1.5000000000001545
  endloop
endfacet
facet normal 0.0 -1.0 0.0
  outer loop
    vertex 58.70301316721944 0.0 10.694600000000152
    vertex 6.203013167219453 0.0 1.5333567748854193e-13
    vertex 58.70301316721944 0.0 1.5333567748854193e-13
  endloop
endfacet
facet normal 0.0 -1.0 0.0
  outer loop
    vertex 6.203013167219453 0.0 1.5333567748854193e-13
    vertex 58.70301316721944 0.0 10.694600000000152
    vertex 6.203013167219453 0.0 10.694600000000152
  endloop
endfacet
facet normal 1.0 0.0 0.0
  outer loop
    vertex 6.95301316721944 75.5 4.000000000000154
    vertex 6.95301316721944 1.4999999999999973 10.694600000000152
    vertex 6.95301316721944 1.4999999999999973 4.000000000000154
  endloop
endfacet
facet normal 1.0 0.0 0.0
  outer loop
    vertex 6.95301316721944 1.4999999999999973 10.694600000000152
    vertex 6.95301316721944 75.5 4.000000000000154
    vertex 6.95301316721944 75.5 10.694600000000152
  endloop
endfacet
facet normal -0.0 -1.0 -0.0
  outer loop
    vertex 56.45301316721944 68.0 4.000000000000154
    vertex 8.453013167219437 68.0 1.5000000000001545
    vertex 56.45301316721944 68.0 1.5000000000001545
  endloop
endfacet
facet normal -0.0 -1.0 -0.0
  outer loop
    vertex 8.453013167219437 68.0 1.5000000000001545
    vertex 56.45301316721944 68.0 4.000000000000154
    vertex 8.453013167219437 68.0 4.000000000000154
  endloop
endfacet
facet normal 1.0 0.0 0.0
  outer loop
    vertex 8.453013167219437 68.0 1.5000000000001545
    vertex 8.453013167219437 5.500000000000001 4.000000000000154
    vertex 8.453013167219437 5.500000000000001 1.5000000000001545
  endloop
endfacet
facet normal 1.0 0.0 0.0
  outer loop
    vertex 8.453013167219437 5.500000000000001 4.000000000000154
    vertex 8.453013167219437 68.0 1.5000000000001545
    vertex 8.453013167219437 68.0 4.000000000000154
  endloop
endfacet
facet normal 5.4951743716483725e-18 -7.385125815415188e-19 1.0
  outer loop
    vertex 6.203013167219453 0.0 10.694600000000152
    vertex 6.95301316721944 1.4999999999999973 10.694600000000152
    vertex 6.203013167219453 45.499999999999986 10.694600000000154
  endloop
endfacet
facet normal 5.4951743716483725e-18 -7.385125815415188e-19 1.0
  outer loop
    vertex 6.95301316721944 1.4999999999999973 10.694600000000152
    vertex 6.203013167219453 0.0 10.694600000000152
    vertex 58.70301316721944 0.0 10.694600000000152
  endloop
endfacet
facet normal 5.4951743716483725e-18 -7.385125815415188e-19 1.0
  outer loop
    vertex 6.203013167219453 45.499999999999986 10.694600000000154
    vertex 6.95301316721944 1.4999999999999973 10.694600000000152
    vertex 6.203013167219453 75.5 10.694600000000152
  endloop
endfacet
facet normal 5.4951743716483725e-18 -7.385125815415188e-19 1.0
  outer loop
    vertex 6.95301316721944 1.4999999999999973 10.694600000000152
    vertex 58.70301316721944 0.0 10.694600000000152
    vertex 57.95301316721944 1.4999999999999973 10.694600000000152
  endloop
endfacet
facet normal 5.4951743716483725e-18 -7.385125815415188e-19 1.0
  outer loop
    vertex 57.95301316721944 1.4999999999999973 10.694600000000152
    vertex 58.70301316721944 0.0 10.694600000000152
    vertex 57.95301316721944 75.5 10.694600000000152
  endloop
endfacet
facet normal 5.4951743716483725e-18 -7.385125815415188e-19 1.0
  outer loop
    vertex 57.95301316721944 75.5 10.694600000000152
    vertex 58.70301316721944 0.0 10.694600000000152
    vertex 58.703013167219446 75.5 10.694600000000152
  endloop
endfacet
facet normal 5.4951743716483725e-18 -7.385125815415188e-19 1.0
  outer loop
    vertex 58.703013167219446 75.5 10.694600000000152
    vertex 58.70301316721944 0.0 10.694600000000152
    vertex 58.703013167219446 45.49999999999999 10.694600000000152
  endloop
endfacet
facet normal 5.4951743716483725e-18 -7.385125815415188e-19 1.0
  outer loop
    vertex 6.95301316721944 75.5 10.694600000000152
    vertex 6.203013167219453 75.5 10.694600000000152
    vertex 6.95301316721944 1.4999999999999973 10.694600000000152
  endloop
endfacet
facet normal 1.0 0.0 0.0
  outer loop
    vertex 58.703013167219446 50.5 1.5333567748854193e-13
    vertex 58.703013167219446 45.49999999999999 10.694600000000152
    vertex 58.703013167219446 45.49999999999999 1.5333567748854193e-13
  endloop
endfacet
facet normal 1.0 0.0 0.0
  outer loop
    vertex 58.703013167219446 45.49999999999999 10.694600000000152
    vertex 58.703013167219446 50.5 1.5333567748854193e-13
    vertex 58.703013167219446 75.5 10.694600000000152
  endloop
endfacet
facet normal 1.0 0.0 0.0
  outer loop
    vertex 58.703013167219446 75.5 10.694600000000152
    vertex 58.703013167219446 50.5 1.5333567748854193e-13
    vertex 58.703013167219446 70.5 1.5333567748854193e-13
  endloop
endfacet
facet normal 1.0 0.0 0.0
  outer loop
    vertex 58.703013167219446 75.5 10.694600000000152
    vertex 58.703013167219446 70.5 1.5333567748854193e-13
    vertex 58.703013167219446 75.5 1.5333567748854193e-13
  endloop
endfacet
facet normal -2.002530487369135e-14 -8.923628972953911e-15 -1.0
  outer loop
    vertex 64.90602633443875 75.49999999999996 0.0
    vertex 58.703013167219446 70.5 1.5333567748854193e-13
    vertex 58.703013167219446 75.5 1.5333567748854193e-13
  endloop
endfacet
facet normal -2.002530487369135e-14 -8.923628972953911e-15 -1.0
  outer loop
    vertex 58.703013167219446 70.5 1.5333567748854193e-13
    vertex 64.90602633443875 75.49999999999996 0.0
    vertex 61.70301316721944 70.49999999999997 1.5333567748854193e-13
  endloop
endfacet
facet normal -2.002530487369135e-14 -8.923628972953911e-15 -1.0
  outer loop
    vertex 61.70301316721944 70.49999999999997 1.5333567748854193e-13
    vertex 64.90602633443875 75.49999999999996 0.0
    vertex 64.90602633443885 70.49999999999997 5.921929613350585e-14
  endloop
endfacet
facet normal 0.0 1.0 0.0
  outer loop
    vertex 8.453013167219437 5.500000000000001 4.000000000000154
    vertex 56.45301316721944 5.500000000000001 1.5000000000001545
    vertex 8.453013167219437 5.500000000000001 1.5000000000001545
  endloop
endfacet
facet normal 0.0 1.0 0.0
  outer loop
    vertex 56.45301316721944 5.500000000000001 1.5000000000001545
    vertex 8.453013167219437 5.500000000000001 4.000000000000154
    vertex 56.45301316721944 5.500000000000001 4.000000000000154
  endloop
endfacet
facet normal 0.0 1.0 0.0
  outer loop
    vertex 6.95301316721944 1.4999999999999973 10.694600000000152
    vertex 57.95301316721944 1.4999999999999973 4.000000000000154
    vertex 6.95301316721944 1.4999999999999973 4.000000000000154
  endloop
endfacet
facet normal 0.0 1.0 0.0
  outer loop
    vertex 57.95301316721944 1.4999999999999973 4.000000000000154
    vertex 6.95301316721944 1.4999999999999973 10.694600000000152
    vertex 57.95301316721944 1.4999999999999973 10.694600000000152
  endloop
endfacet
facet normal 0.0 0.0 1.0
  outer loop
    vertex 6.95301316721944 1.4999999999999973 4.000000000000154
    vertex 8.453013167219437 5.500000000000001 4.000000000000154
    vertex 6.95301316721944 75.5 4.000000000000154
  endloop
endfacet
facet normal 0.0 0.0 1.0
  outer loop
    vertex 8.453013167219437 5.500000000000001 4.000000000000154
    vertex 6.95301316721944 1.4999999999999973 4.000000000000154
    vertex 57.95301316721944 1.4999999999999973 4.000000000000154
  endloop
endfacet
facet normal 0.0 0.0 1.0
  outer loop
    vertex 8.453013167219437 5.500000000000001 4.000000000000154
    vertex 57.95301316721944 1.4999999999999973 4.000000000000154
    vertex 56.45301316721944 5.500000000000001 4.000000000000154
  endloop
endfacet
facet normal 0.0 0.0 1.0
  outer loop
    vertex 56.45301316721944 5.500000000000001 4.000000000000154
    vertex 57.95301316721944 1.4999999999999973 4.000000000000154
    vertex 56.45301316721944 68.0 4.000000000000154
  endloop
endfacet
facet normal 0.0 0.0 1.0
  outer loop
    vertex 6.95301316721944 75.5 4.000000000000154
    vertex 8.453013167219437 68.0 4.000000000000154
    vertex 57.95301316721944 75.5 4.000000000000154
  endloop
endfacet
facet normal 0.0 0.0 1.0
  outer loop
    vertex 8.453013167219437 68.0 4.000000000000154
    vertex 6.95301316721944 75.5 4.000000000000154
    vertex 8.453013167219437 5.500000000000001 4.000000000000154
  endloop
endfacet
facet normal 0.0 0.0 1.0
  outer loop
    vertex 57.95301316721944 75.5 4.000000000000154
    vertex 8.453013167219437 68.0 4.000000000000154
    vertex 56.45301316721944 68.0 4.000000000000154
  endloop
endfacet
facet normal 0.0 0.0 1.0
  outer loop
    vertex 57.95301316721944 75.5 4.000000000000154
    vertex 56.45301316721944 68.0 4.000000000000154
    vertex 57.95301316721944 1.4999999999999973 4.000000000000154
  endloop
endfacet
facet normal -1.0 -0.0 -0.0
  outer loop
    vertex 57.95301316721944 75.5 10.694600000000152
    vertex 57.95301316721944 1.4999999999999973 4.000000000000154
    vertex 57.95301316721944 1.4999999999999973 10.694600000000152
  endloop
endfacet
facet normal -1.0 -0.0 -0.0
  outer loop
    vertex 57.95301316721944 1.4999999999999973 4.000000000000154
    vertex 57.95301316721944 75.5 10.694600000000152
    vertex 57.95301316721944 75.5 4.000000000000154
  endloop
endfacet
facet normal -1.469185052347735e-14 -2.3529095338759212e-15 -1.0
  outer loop
    vertex 64.90602633443885 70.49999999999997 5.921929613350585e-14
    vertex 61.70301316721944 50.5 1.5333567748854193e-13
    vertex 61.70301316721944 70.49999999999997 1.5333567748854193e-13
  endloop
endfacet
facet normal -1.469185052347735e-14 -2.3529095338759212e-15 -1.0
  outer loop
    vertex 61.70301316721944 50.5 1.5333567748854193e-13
    vertex 64.90602633443885 70.49999999999997 5.921929613350585e-14
    vertex 64.9060263344389 50.499999999999986 1.5333567748854193e-13
  endloop
endfacet
facet normal 8.680790405356695e-16 1.0 -5.638409145144941e-16
  outer loop
    vertex 58.703013167219446 75.5 1.5333567748854193e-13
    vertex 64.90602633443879 75.5 2.402256922731977
    vertex 64.90602633443875 75.49999999999996 0.0
  endloop
endfacet
facet normal 8.680790405356695e-16 1.0 -5.638409145144941e-16
  outer loop
    vertex 64.90602633443879 75.5 2.402256922731977
    vertex 58.703013167219446 75.5 1.5333567748854193e-13
    vertex 58.703013167219446 75.5 10.694600000000152
  endloop
endfacet
facet normal 1.894007339024688e-15 1.0 -4.259888480172723e-15
  outer loop
    vertex 63.10903950165832 70.5 4.804513845463917
    vertex 61.70301316721944 70.49999999999997 1.5333567748854193e-13
    vertex 58.703013167219446 70.5 1.5333567748854193e-13
  endloop
endfacet
facet normal 1.894007339024688e-15 1.0 -4.259888480172723e-15
  outer loop
    vertex 61.70301316721944 70.49999999999997 1.5333567748854193e-13
    vertex 63.10903950165832 70.5 4.804513845463917
    vertex 64.9060263344389 70.5 2.4022569227320365
  endloop
endfacet
facet normal 0.599999528014881 -2.462176896272807e-17 -0.8000003539886219
  outer loop
    vertex 64.9060263344389 70.5 2.4022569227320365
    vertex 61.70301316721944 50.5 1.5333567748854193e-13
    vertex 61.70301316721944 70.49999999999997 1.5333567748854193e-13
  endloop
endfacet
facet normal 0.599999528014881 -2.462176896272807e-17 -0.8000003539886219
  outer loop
    vertex 61.70301316721944 50.5 1.5333567748854193e-13
    vertex 64.9060263344389 70.5 2.4022569227320365
    vertex 64.9060263344389 50.5 2.4022569227320374
  endloop
endfacet
facet normal -0.7370098116386693 1.512859488992737e-17 0.6758820441085363
  outer loop
    vertex 63.10903950165832 70.5 4.804513845463917
    vertex 58.703013167219446 50.5 1.5333567748854193e-13
    vertex 63.10903950165832 50.5 4.804513845463918
  endloop
endfacet
facet normal -0.7370098116386693 1.512859488992737e-17 0.6758820441085363
  outer loop
    vertex 58.703013167219446 50.5 1.5333567748854193e-13
    vertex 63.10903950165832 70.5 4.804513845463917
    vertex 58.703013167219446 70.5 1.5333567748854193e-13
  endloop
endfacet
facet normal 0.8007523075772955 1.300175192593704e-15 0.598995610926855
  outer loop
    vertex 64.90602633443879 75.5 2.402256922731977
    vertex 63.10903950165832 70.5 4.804513845463917
    vertex 64.9060263344389 70.5 2.4022569227320365
  endloop
endfacet
facet normal 0.8007523075772955 1.300175192593704e-15 0.598995610926855
  outer loop
    vertex 64.9060263344389 50.5 2.4022569227320374
    vertex 58.703013167219446 45.49999999999999 10.694600000000152
    vertex 64.9060263344389 45.49999999999999 2.402256922732035
  endloop
endfacet
facet normal 0.8007523075772955 1.300175192593704e-15 0.598995610926855
  outer loop
    vertex 58.703013167219446 45.49999999999999 10.694600000000152
    vertex 64.9060263344389 50.5 2.4022569227320374
    vertex 63.10903950165832 50.5 4.804513845463918
  endloop
endfacet
facet normal 0.8007523075772955 1.300175192593704e-15 0.598995610926855
  outer loop
    vertex 58.703013167219446 45.49999999999999 10.694600000000152
    vertex 63.10903950165832 50.5 4.804513845463918
    vertex 58.703013167219446 75.5 10.694600000000152
  endloop
endfacet
facet normal 0.8007523075772955 1.300175192593704e-15 0.598995610926855
  outer loop
    vertex 58.703013167219446 75.5 10.694600000000152
    vertex 63.10903950165832 50.5 4.804513845463918
    vertex 63.10903950165832 70.5 4.804513845463917
  endloop
endfacet
facet normal 0.8007523075772955 1.300175192593704e-15 0.598995610926855
  outer loop
    vertex 58.703013167219446 75.5 10.694600000000152
    vertex 63.10903950165832 70.5 4.804513845463917
    vertex 64.90602633443879 75.5 2.402256922731977
  endloop
endfacet
facet normal 0.0 1.0 0.0
  outer loop
    vertex 63.10903950165832 50.5 4.804513845463918
    vertex 61.70301316721944 50.5 1.5333567748854193e-13
    vertex 58.703013167219446 50.5 1.5333567748854193e-13
  endloop
endfacet
facet normal 0.0 1.0 0.0
  outer loop
    vertex 61.70301316721944 50.5 1.5333567748854193e-13
    vertex 63.10903950165832 50.5 4.804513845463918
    vertex 64.9060263344389 50.5 2.4022569227320374
  endloop
endfacet
facet normal 0.0 0.0 -1.0
  outer loop
    vertex 61.70301316721944 50.5 1.5333567748854193e-13
    vertex 58.703013167219446 45.49999999999999 1.5333567748854193e-13
    vertex 58.703013167219446 50.5 1.5333567748854193e-13
  endloop
endfacet
facet normal 0.0 0.0 -1.0
  outer loop
    vertex 58.703013167219446 45.49999999999999 1.5333567748854193e-13
    vertex 61.70301316721944 50.5 1.5333567748854193e-13
    vertex 64.9060263344389 45.49999999999999 1.5333567748854193e-13
  endloop
endfacet
facet normal 0.0 0.0 -1.0
  outer loop
    vertex 64.9060263344389 45.49999999999999 1.5333567748854193e-13
    vertex 61.70301316721944 50.5 1.5333567748854193e-13
    vertex 64.9060263344389 50.499999999999986 1.5333567748854193e-13
  endloop
endfacet
facet normal 0.0 -1.0 0.0
  outer loop
    vertex 64.9060263344389 45.49999999999999 2.402256922732035
    vertex 58.703013167219446 45.49999999999999 1.5333567748854193e-13
    vertex 64.9060263344389 45.49999999999999 1.5333567748854193e-13
  endloop
endfacet
facet normal 0.0 -1.0 0.0
  outer loop
    vertex 58.703013167219446 45.49999999999999 1.5333567748854193e-13
    vertex 64.9060263344389 45.49999999999999 2.402256922732035
    vertex 58.703013167219446 45.49999999999999 10.694600000000152
  endloop
endfacet
facet normal 1.0 3.2104233801314234e-15 -9.391057070918459e-15
  outer loop
    vertex 64.9060263344389 50.499999999999986 1.5333567748854193e-13
    vertex 64.9060263344389 45.49999999999999 2.402256922732035
    vertex 64.9060263344389 45.49999999999999 1.5333567748854193e-13
  endloop
endfacet
facet normal 1.0 3.2104233801314234e-15 -9.391057070918459e-15
  outer loop
    vertex 64.9060263344389 45.49999999999999 2.402256922732035
    vertex 64.9060263344389 50.499999999999986 1.5333567748854193e-13
    vertex 64.9060263344389 50.5 2.4022569227320374
  endloop
endfacet
facet normal 1.0 3.2104233801314234e-15 -9.391057070918459e-15
  outer loop
    vertex 64.9060263344389 50.5 2.4022569227320374
    vertex 64.9060263344389 50.499999999999986 1.5333567748854193e-13
    vertex 64.90602633443885 70.49999999999997 5.921929613350585e-14
  endloop
endfacet
facet normal 1.0 3.2104233801314234e-15 -9.391057070918459e-15
  outer loop
    vertex 64.9060263344389 50.5 2.4022569227320374
    vertex 64.90602633443885 70.49999999999997 5.921929613350585e-14
    vertex 64.9060263344389 70.5 2.4022569227320365
  endloop
endfacet
facet normal 1.0 3.2104233801314234e-15 -9.391057070918459e-15
  outer loop
    vertex 64.9060263344389 70.5 2.4022569227320365
    vertex 64.90602633443885 70.49999999999997 5.921929613350585e-14
    vertex 64.90602633443875 75.49999999999996 0.0
  endloop
endfacet
facet normal 1.0 3.2104233801314234e-15 -9.391057070918459e-15
  outer loop
    vertex 64.9060263344389 70.5 2.4022569227320365
    vertex 64.90602633443875 75.49999999999996 0.0
    vertex 64.90602633443879 75.5 2.402256922731977
  endloop
endfacet
facet normal -1.6835620791330554e-15 1.0 -3.786567537931306e-15
  outer loop
    vertex 0.0 70.5 2.4022569227320356
    vertex 6.203013167219453 70.5 1.5227819005758646e-13
    vertex 3.203013167219458 70.49999999999997 1.5227819005758646e-13
  endloop
endfacet
facet normal -1.6835620791330554e-15 1.0 -3.786567537931306e-15
  outer loop
    vertex 6.203013167219453 70.5 1.5227819005758646e-13
    vertex 0.0 70.5 2.4022569227320356
    vertex 1.7969868327805776 70.5 4.804513845463918
  endloop
endfacet
facet normal 0.7370098116386696 4.538578466978212e-17 0.6758820441085359
  outer loop
    vertex 6.203013167219453 70.5 1.5227819005758646e-13
    vertex 1.7969868327805776 50.5 4.80451384546392
    vertex 6.203013167219453 50.5 1.5227819005758646e-13
  endloop
endfacet
facet normal 0.7370098116386696 4.538578466978212e-17 0.6758820441085359
  outer loop
    vertex 1.7969868327805776 50.5 4.80451384546392
    vertex 6.203013167219453 70.5 1.5227819005758646e-13
    vertex 1.7969868327805776 70.5 4.804513845463918
  endloop
endfacet
facet normal -2.2754202082601323e-15 1.0 -6.766090974173384e-16
  outer loop
    vertex 1.0151879337172431e-13 75.5 2.4022569227319766
    vertex 6.203013167219453 75.5 1.5333567748854193e-13
    vertex 1.4663825709249067e-13 75.49999999999996 0.0
  endloop
endfacet
facet normal -2.2754202082601323e-15 1.0 -6.766090974173384e-16
  outer loop
    vertex 6.203013167219453 75.5 1.5333567748854193e-13
    vertex 1.0151879337172431e-13 75.5 2.4022569227319766
    vertex 6.203013167219453 75.5 10.694600000000152
  endloop
endfacet
facet normal -0.8007523075772954 1.352115639486433e-15 0.5989956109268555
  outer loop
    vertex 6.203013167219453 45.499999999999986 10.694600000000154
    vertex 1.7969868327805776 50.5 4.80451384546392
    vertex 0.0 45.499999999999986 2.402256922732033
  endloop
endfacet
facet normal -0.8007523075772954 1.352115639486433e-15 0.5989956109268555
  outer loop
    vertex 1.7969868327805776 50.5 4.80451384546392
    vertex 6.203013167219453 45.499999999999986 10.694600000000154
    vertex 6.203013167219453 75.5 10.694600000000152
  endloop
endfacet
facet normal -0.8007523075772954 1.352115639486433e-15 0.5989956109268555
  outer loop
    vertex 1.7969868327805776 50.5 4.80451384546392
    vertex 6.203013167219453 75.5 10.694600000000152
    vertex 1.7969868327805776 70.5 4.804513845463918
  endloop
endfacet
facet normal -0.8007523075772954 1.352115639486433e-15 0.5989956109268555
  outer loop
    vertex 1.7969868327805776 70.5 4.804513845463918
    vertex 6.203013167219453 75.5 10.694600000000152
    vertex 0.0 70.5 2.4022569227320356
  endloop
endfacet
facet normal -0.8007523075772954 1.352115639486433e-15 0.5989956109268555
  outer loop
    vertex 0.0 70.5 2.4022569227320356
    vertex 6.203013167219453 75.5 10.694600000000152
    vertex 1.0151879337172431e-13 75.5 2.4022569227319766
  endloop
endfacet
facet normal -0.8007523075772954 1.352115639486433e-15 0.5989956109268555
  outer loop
    vertex 0.0 50.5 2.4022569227320356
    vertex 0.0 45.499999999999986 2.402256922732033
    vertex 1.7969868327805776 50.5 4.80451384546392
  endloop
endfacet
facet normal 0.0 1.0 0.0
  outer loop
    vertex 0.0 50.5 2.4022569227320356
    vertex 6.203013167219453 50.5 1.5227819005758646e-13
    vertex 3.203013167219458 50.5 1.5227819005758646e-13
  endloop
endfacet
facet normal 0.0 1.0 0.0
  outer loop
    vertex 6.203013167219453 50.5 1.5227819005758646e-13
    vertex 0.0 50.5 2.4022569227320356
    vertex 1.7969868327805776 50.5 4.80451384546392
  endloop
endfacet
facet normal 0.0 0.0 -1.0
  outer loop
    vertex 3.203013167219458 50.5 1.5227819005758646e-13
    vertex 0.0 45.499999999999986 1.5227819005758646e-13
    vertex 0.0 50.49999999999998 1.5227819005758646e-13
  endloop
endfacet
facet normal 0.0 0.0 -1.0
  outer loop
    vertex 0.0 45.499999999999986 1.5227819005758646e-13
    vertex 3.203013167219458 50.5 1.5227819005758646e-13
    vertex 6.203013167219453 45.499999999999986 1.5227819005758646e-13
  endloop
endfacet
facet normal 0.0 0.0 -1.0
  outer loop
    vertex 6.203013167219453 45.499999999999986 1.5227819005758646e-13
    vertex 3.203013167219458 50.5 1.5227819005758646e-13
    vertex 6.203013167219453 50.5 1.5227819005758646e-13
  endloop
endfacet
facet normal 0.0 -1.0 0.0
  outer loop
    vertex 6.203013167219453 45.499999999999986 10.694600000000154
    vertex 0.0 45.499999999999986 1.5227819005758646e-13
    vertex 6.203013167219453 45.499999999999986 1.5227819005758646e-13
  endloop
endfacet
facet normal 0.0 -1.0 0.0
  outer loop
    vertex 0.0 45.499999999999986 1.5227819005758646e-13
    vertex 6.203013167219453 45.499999999999986 10.694600000000154
    vertex 0.0 45.499999999999986 2.402256922732033
  endloop
endfacet
facet normal -0.599999528014881 6.602918125991722e-23 -0.8000003539886219
  outer loop
    vertex 3.203013167219458 70.49999999999997 1.5227819005758646e-13
    vertex 0.0 50.5 2.4022569227320356
    vertex 0.0 70.5 2.4022569227320356
  endloop
endfacet
facet normal -0.599999528014881 6.602918125991722e-23 -0.8000003539886219
  outer loop
    vertex 0.0 50.5 2.4022569227320356
    vertex 3.203013167219458 70.49999999999997 1.5227819005758646e-13
    vertex 3.203013167219458 50.5 1.5227819005758646e-13
  endloop
endfacet
facet normal -1.0 3.2104233801314222e-15 -9.391057070918465e-15
  outer loop
    vertex 0.0 50.5 2.4022569227320356
    vertex 0.0 45.499999999999986 1.5227819005758646e-13
    vertex 0.0 45.499999999999986 2.402256922732033
  endloop
endfacet
facet normal -1.0 3.2104233801314222e-15 -9.391057070918465e-15
  outer loop
    vertex 0.0 45.499999999999986 1.5227819005758646e-13
    vertex 0.0 50.5 2.4022569227320356
    vertex 0.0 50.49999999999998 1.5227819005758646e-13
  endloop
endfacet
facet normal -1.0 3.2104233801314222e-15 -9.391057070918465e-15
  outer loop
    vertex 0.0 50.49999999999998 1.5227819005758646e-13
    vertex 0.0 50.5 2.4022569227320356
    vertex 4.511946372076636e-14 70.49999999999997 5.921929613350585e-14
  endloop
endfacet
facet normal -1.0 3.2104233801314222e-15 -9.391057070918465e-15
  outer loop
    vertex 4.511946372076636e-14 70.49999999999997 5.921929613350585e-14
    vertex 0.0 50.5 2.4022569227320356
    vertex 0.0 70.5 2.4022569227320356
  endloop
endfacet
facet normal -1.0 3.2104233801314222e-15 -9.391057070918465e-15
  outer loop
    vertex 4.511946372076636e-14 70.49999999999997 5.921929613350585e-14
    vertex 0.0 70.5 2.4022569227320356
    vertex 1.4663825709249067e-13 75.49999999999996 0.0
  endloop
endfacet
facet normal -1.0 3.2104233801314222e-15 -9.391057070918465e-15
  outer loop
    vertex 1.4663825709249067e-13 75.49999999999996 0.0
    vertex 0.0 70.5 2.4022569227320356
    vertex 1.0151879337172431e-13 75.5 2.4022569227319766
  endloop
endfacet
facet normal -1.0 0.0 0.0
  outer loop
    vertex 6.203013167219453 75.5 10.694600000000152
    vertex 6.203013167219453 45.499999999999986 1.5227819005758646e-13
    vertex 6.203013167219453 45.499999999999986 10.694600000000154
  endloop
endfacet
facet normal -1.0 0.0 0.0
  outer loop
    vertex 6.203013167219453 45.499999999999986 1.5227819005758646e-13
    vertex 6.203013167219453 75.5 10.694600000000152
    vertex 6.203013167219453 50.5 1.5227819005758646e-13
  endloop
endfacet
facet normal -1.0 0.0 0.0
  outer loop
    vertex 6.203013167219453 50.5 1.5227819005758646e-13
    vertex 6.203013167219453 75.5 10.694600000000152
    vertex 6.203013167219453 70.5 1.5227819005758646e-13
  endloop
endfacet
facet normal -1.0 0.0 0.0
  outer loop
    vertex 6.203013167219453 70.5 1.5227819005758646e-13
    vertex 6.203013167219453 75.5 10.694600000000152
    vertex 6.203013167219453 75.5 1.5333567748854193e-13
  endloop
endfacet
facet normal 1.9939150521854725e-14 -8.783213664421051e-15 -1.0
  outer loop
    vertex 1.4663825709249067e-13 75.49999999999996 0.0
    vertex 3.203013167219458 70.49999999999997 1.5227819005758646e-13
    vertex 4.511946372076636e-14 70.49999999999997 5.921929613350585e-14
  endloop
endfacet
facet normal 1.9939150521854725e-14 -8.783213664421051e-15 -1.0
  outer loop
    vertex 3.203013167219458 70.49999999999997 1.5227819005758646e-13
    vertex 1.4663825709249067e-13 75.49999999999996 0.0
    vertex 6.203013167219453 75.5 1.5333567748854193e-13
  endloop
endfacet
facet normal 1.9939150521854725e-14 -8.783213664421051e-15 -1.0
  outer loop
    vertex 3.203013167219458 70.49999999999997 1.5227819005758646e-13
    vertex 6.203013167219453 75.5 1.5333567748854193e-13
    vertex 6.203013167219453 70.5 1.5227819005758646e-13
  endloop
endfacet
facet normal 1.452677355130345e-14 -2.3264723481020347e-15 -1.0
  outer loop
    vertex 4.511946372076636e-14 70.49999999999997 5.921929613350585e-14
    vertex 3.203013167219458 50.5 1.5227819005758646e-13
    vertex 0.0 50.49999999999998 1.5227819005758646e-13
  endloop
endfacet
facet normal 1.452677355130345e-14 -2.3264723481020347e-15 -1.0
  outer loop
    vertex 3.203013167219458 50.5 1.5227819005758646e-13
    vertex 4.511946372076636e-14 70.49999999999997 5.921929613350585e-14
    vertex 3.203013167219458 70.49999999999997 1.5227819005758646e-13
  endloop
endfacet
endsolid Untitled-5bcef144
